<svg width="800" height="800" viewBox="0 0 800 800" fill="none" xmlns="http://www.w3.org/2000/svg">
<path d="M314.368 426.839V399.227L202.77 320.88C188.5 310.862 172.151 300.641 154.899 303.161C139.836 305.401 127.327 311.902 118.107 324.264C109.401 335.966 105.719 350.656 107.875 365.082C110.091 379.253 117.807 391.977 129.348 400.491C140.897 408.878 155.287 412.37 169.395 410.219C181.521 408.332 239.123 380.933 239.123 380.933L216.688 365.401L189.328 378.006C165.599 387.836 142.179 394.741 132.373 367.43C129.466 359.375 129.998 350.479 133.843 342.828C137.608 335.224 144.401 329.557 152.557 327.216C155.674 326.305 158.316 326.097 161.483 325.849L161.654 325.835C173.352 326.93 178.761 331.828 188.04 338.479L211.187 354.635L314.368 426.839Z" fill="#EF2F38"/>
<path d="M274.673 364.366L322.305 342.276L299.87 326.398L252.583 348.834L274.673 364.366Z" fill="#EF2F38"/>
<path d="M260.177 263.234V290.847L371.775 369.194C386.045 379.212 402.394 389.433 419.646 386.913C434.709 384.672 447.218 378.172 456.438 365.81C465.144 354.107 468.826 339.417 466.67 324.991C464.454 310.821 456.738 298.097 445.197 289.582C433.647 281.196 419.258 277.704 405.15 279.855C393.024 281.742 335.422 309.14 335.422 309.14L357.857 324.673L385.217 312.068C408.946 302.237 432.366 295.333 442.172 322.644C445.079 330.699 444.547 339.595 440.702 347.245C436.937 354.85 430.144 360.517 421.988 362.858C418.87 363.769 416.229 363.976 413.062 364.225L412.891 364.238C401.192 363.144 395.784 358.246 386.505 351.595L363.358 335.439L260.177 263.234Z" fill="#EF2F38"/>
<path d="M107.998 514.385V446.93H123.609V514.385H107.998ZM162.745 514.385V446.93H175.658L215.456 495.497H209.192V446.93H224.61V514.385H211.794L171.899 465.817H178.163V514.385H162.745ZM263.697 514.385V446.93H314.673V459.457H279.308V514.385H263.697ZM278.152 489.812V477.285H310.53V489.812H278.152ZM348.369 514.385V446.93H363.98V514.385H348.369ZM403.116 514.385V446.93H416.028L455.826 495.497H449.563V446.93H464.981V514.385H452.165L412.27 465.817H418.534V514.385H403.116ZM504.068 514.385V446.93H519.679V514.385H504.068ZM572.787 514.385V459.65H551.202V446.93H609.983V459.65H588.398V514.385H572.787ZM656.96 514.385V486.825L660.525 496.268L630.845 446.93H647.42L670.162 484.801H660.622L683.46 446.93H698.782L669.102 496.268L672.571 486.825V514.385H656.96Z" fill="#EF2F38"/>
<path d="M356.818 423.839V399.556H347.425V397.112H369.036V399.556H359.643V423.839H356.818ZM400.839 423.839V419.41L400.724 418.685V411.278C400.724 409.572 400.24 408.261 399.273 407.345C398.331 406.428 396.919 405.97 395.035 405.97C393.737 405.97 392.502 406.187 391.331 406.619C390.16 407.052 389.168 407.625 388.353 408.338L387.131 406.314C388.149 405.448 389.371 404.787 390.797 404.328C392.222 403.845 393.724 403.603 395.302 403.603C397.899 403.603 399.897 404.252 401.297 405.55C402.722 406.823 403.435 408.77 403.435 411.392V423.839H400.839ZM393.928 424.03C392.426 424.03 391.115 423.788 389.995 423.305C388.9 422.796 388.06 422.108 387.475 421.243C386.889 420.352 386.597 419.334 386.597 418.188C386.597 417.145 386.839 416.203 387.322 415.363C387.831 414.498 388.646 413.81 389.766 413.301C390.911 412.767 392.439 412.499 394.348 412.499H401.259V414.523H394.424C392.489 414.523 391.14 414.867 390.377 415.554C389.639 416.241 389.269 417.094 389.269 418.112C389.269 419.258 389.715 420.174 390.606 420.861C391.497 421.548 392.744 421.892 394.348 421.892C395.875 421.892 397.186 421.548 398.28 420.861C399.4 420.148 400.215 419.13 400.724 417.807L401.335 419.678C400.826 421.001 399.935 422.058 398.662 422.847C397.415 423.636 395.837 424.03 393.928 424.03ZM435.731 424.03C433.644 424.03 431.811 423.598 430.233 422.732C428.654 421.841 427.42 420.632 426.529 419.105C425.638 417.552 425.193 415.783 425.193 413.798C425.193 411.812 425.613 410.056 426.453 408.528C427.318 407.001 428.489 405.805 429.965 404.939C431.467 404.048 433.147 403.603 435.005 403.603C436.889 403.603 438.556 404.036 440.007 404.901C441.484 405.741 442.642 406.938 443.482 408.49C444.322 410.018 444.742 411.787 444.742 413.798C444.742 413.925 444.729 414.065 444.704 414.218C444.704 414.345 444.704 414.485 444.704 414.638H427.254V412.614H443.253L442.184 413.416C442.184 411.965 441.865 410.679 441.229 409.559C440.618 408.414 439.778 407.523 438.709 406.887C437.64 406.25 436.405 405.932 435.005 405.932C433.631 405.932 432.396 406.25 431.302 406.887C430.207 407.523 429.354 408.414 428.744 409.559C428.133 410.705 427.827 412.016 427.827 413.492V413.912C427.827 415.439 428.158 416.788 428.82 417.959C429.507 419.105 430.449 420.008 431.645 420.67C432.867 421.307 434.254 421.625 435.807 421.625C437.029 421.625 438.162 421.408 439.205 420.976C440.274 420.543 441.191 419.881 441.954 418.99L443.482 420.747C442.591 421.816 441.471 422.63 440.122 423.19C438.798 423.75 437.334 424.03 435.731 424.03ZM468.816 418.647L468.892 415.172L481.378 403.794H484.7L475.88 412.232L474.352 413.53L468.816 418.647ZM466.678 423.839V395.508H469.389V423.839H466.678ZM482.218 423.839L473.856 413.416L475.612 411.316L485.54 423.839H482.218ZM508.957 423.839L501.397 403.794H503.993L510.866 422.388H509.682L516.746 403.794H519.075L526.062 422.388H524.879L531.866 403.794H534.348L526.75 423.839H524.192L517.472 406.352H518.273L511.515 423.839H508.957ZM562.46 424.03C560.525 424.03 558.781 423.598 557.229 422.732C555.701 421.841 554.492 420.632 553.601 419.105C552.71 417.552 552.265 415.783 552.265 413.798C552.265 411.787 552.71 410.018 553.601 408.49C554.492 406.963 555.701 405.767 557.229 404.901C558.756 404.036 560.5 403.603 562.46 403.603C564.445 403.603 566.201 404.036 567.729 404.901C569.281 405.767 570.49 406.963 571.356 408.49C572.247 410.018 572.692 411.787 572.692 413.798C572.692 415.783 572.247 417.552 571.356 419.105C570.49 420.632 569.281 421.841 567.729 422.732C566.176 423.598 564.42 424.03 562.46 424.03ZM562.46 421.625C563.91 421.625 565.196 421.307 566.316 420.67C567.436 420.008 568.314 419.092 568.95 417.921C569.612 416.725 569.943 415.35 569.943 413.798C569.943 412.219 569.612 410.845 568.95 409.674C568.314 408.503 567.436 407.599 566.316 406.963C565.196 406.301 563.923 405.97 562.498 405.97C561.072 405.97 559.8 406.301 558.68 406.963C557.56 407.599 556.669 408.503 556.007 409.674C555.345 410.845 555.014 412.219 555.014 413.798C555.014 415.35 555.345 416.725 556.007 417.921C556.669 419.092 557.56 420.008 558.68 420.67C559.8 421.307 561.06 421.625 562.46 421.625ZM594.645 423.839V403.794H597.241V409.292L596.821 408.261C597.458 406.81 598.476 405.678 599.876 404.863C601.276 404.023 602.943 403.603 604.878 403.603C606.507 403.603 607.932 403.921 609.154 404.558C610.401 405.168 611.369 406.11 612.056 407.383C612.769 408.656 613.125 410.259 613.125 412.194V423.839H610.414V412.461C610.414 410.348 609.88 408.758 608.81 407.688C607.767 406.594 606.29 406.047 604.381 406.047C602.956 406.047 601.709 406.339 600.64 406.925C599.596 407.485 598.781 408.312 598.196 409.407C597.636 410.476 597.356 411.774 597.356 413.301V423.839H594.645ZM644.846 424.03C642.937 424.03 641.218 423.598 639.691 422.732C638.189 421.867 637.006 420.67 636.14 419.143C635.275 417.59 634.842 415.808 634.842 413.798C634.842 411.761 635.275 409.979 636.14 408.452C637.006 406.925 638.189 405.741 639.691 404.901C641.218 404.036 642.937 403.603 644.846 403.603C646.602 403.603 648.168 403.998 649.542 404.787C650.942 405.576 652.049 406.734 652.864 408.261C653.704 409.763 654.124 411.608 654.124 413.798C654.124 415.961 653.717 417.807 652.902 419.334C652.088 420.861 650.98 422.032 649.58 422.847C648.206 423.636 646.628 424.03 644.846 424.03ZM645.037 421.625C646.462 421.625 647.735 421.307 648.855 420.67C650 420.008 650.891 419.092 651.528 417.921C652.189 416.725 652.52 415.35 652.52 413.798C652.52 412.219 652.189 410.845 651.528 409.674C650.891 408.503 650 407.599 648.855 406.963C647.735 406.301 646.462 405.97 645.037 405.97C643.637 405.97 642.377 406.301 641.257 406.963C640.137 407.599 639.246 408.503 638.584 409.674C637.922 410.845 637.591 412.219 637.591 413.798C637.591 415.35 637.922 416.725 638.584 417.921C639.246 419.092 640.137 420.008 641.257 420.67C642.377 421.307 643.637 421.625 645.037 421.625ZM652.597 423.839V417.807L652.864 413.759L652.482 409.712V395.508H655.193V423.839H652.597ZM687.332 424.03C685.397 424.03 683.654 423.598 682.101 422.732C680.574 421.841 679.365 420.632 678.474 419.105C677.583 417.552 677.137 415.783 677.137 413.798C677.137 411.787 677.583 410.018 678.474 408.49C679.365 406.963 680.574 405.767 682.101 404.901C683.628 404.036 685.372 403.603 687.332 403.603C689.317 403.603 691.074 404.036 692.601 404.901C694.154 405.767 695.363 406.963 696.228 408.49C697.119 410.018 697.565 411.787 697.565 413.798C697.565 415.783 697.119 417.552 696.228 419.105C695.363 420.632 694.154 421.841 692.601 422.732C691.048 423.598 689.292 424.03 687.332 424.03ZM687.332 421.625C688.783 421.625 690.068 421.307 691.188 420.67C692.308 420.008 693.187 419.092 693.823 417.921C694.485 416.725 694.816 415.35 694.816 413.798C694.816 412.219 694.485 410.845 693.823 409.674C693.187 408.503 692.308 407.599 691.188 406.963C690.068 406.301 688.796 405.97 687.37 405.97C685.945 405.97 684.672 406.301 683.552 406.963C682.432 407.599 681.541 408.503 680.879 409.674C680.217 410.845 679.887 412.219 679.887 413.798C679.887 415.35 680.217 416.725 680.879 417.921C681.541 419.092 682.432 420.008 683.552 420.67C684.672 421.307 685.932 421.625 687.332 421.625Z" fill="#EF2F38"/>
<path d="M501.744 359.422H505.119C507.911 359.422 510.374 359.402 512.508 359.363C514.641 359.286 516.639 359.15 518.501 358.956C520.401 358.723 522.341 358.432 524.319 358.083L524.784 362.098C522.767 362.447 520.789 362.738 518.85 362.971C516.91 363.165 514.835 363.3 512.624 363.378C510.452 363.456 507.95 363.494 505.119 363.494H501.744V359.422ZM501.744 329.865H522.457V333.822H506.341V360.934H501.744V329.865ZM504.944 343.771H521.642V347.611H504.944V343.771ZM539.737 323.814H544.391V376.469H539.737V323.814ZM531.359 344.934H541.482V348.891H531.359V344.934ZM528.159 324.92H532.755V373.792H528.159V324.92ZM589.187 347.436H593.958V360.178H589.187V347.436ZM613.1 323.872H617.987V363.611H613.1V323.872ZM582.089 371.349H619.267V375.305H582.089V371.349ZM582.089 359.247H586.918V372.512H582.089V359.247ZM574.991 348.6L574.351 344.643C577.57 344.605 581.1 344.566 584.94 344.527C588.78 344.449 592.717 344.294 596.751 344.062C600.785 343.79 604.663 343.402 608.387 342.898L608.736 346.389C604.935 347.048 601.037 347.533 597.041 347.843C593.046 348.154 589.168 348.367 585.405 348.483C581.643 348.561 578.171 348.6 574.991 348.6ZM601.696 352.44H614.321V356.338H601.696V352.44ZM579.063 327.014H601.754V330.912H579.063V327.014ZM598.845 327.014H603.616V329.051C603.616 330.602 603.558 332.755 603.441 335.509C603.325 338.263 602.898 341.54 602.161 345.342L597.449 344.992C598.147 341.152 598.554 337.914 598.671 335.276C598.787 332.639 598.845 330.563 598.845 329.051V327.014ZM655.801 348.425H691.931V352.323H655.801V348.425ZM649.75 365.822H697.459V369.836H649.75V365.822ZM671.102 350.112H675.873V367.392H671.102V350.112ZM655.801 328.003H691.408V332.018H660.63V350.171H655.801V328.003Z" fill="#EF2F38"/>
</svg>
